<mxfile host="app.diagrams.net" modified="2024-05-02T08:41:40.348Z" agent="Mozilla/5.0 (Windows NT 10.0; Win64; x64) AppleWebKit/537.36 (KHTML, like Gecko) Chrome/123.0.0.0 Safari/537.36" version="24.3.1" etag="wnZNmeXBy1NYcm-sfdLI" type="github">
  <diagram name="Страница — 1" id="WUDFoXDstjH1D4LQwJ8h">
    <mxGraphModel>
      <root>
        <mxCell id="0" />
        <mxCell id="1" parent="0" />
      </root>
    </mxGraphModel>
  </diagram>
</mxfile>
